<?xml version="1.0" encoding="UTF-8"?>
<svg id="Layer_1" data-name="Layer 1" xmlns="http://www.w3.org/2000/svg" viewBox="0 0 699.52 776.57">
  <defs>
    <style>
      .cls-1 {
        fill: #231f20;
        stroke: #231f20;
        stroke-miterlimit: 10;
      }
    </style>
  </defs>
  <polygon class="cls-1" points="248.01 65.93 240.58 95.67 200.27 95.67 206.92 65.93 248.01 65.93"/>
  <path class="cls-1" d="M195.03,66.5s-.01-.03-.02-.06c-.01,0-.06-.04-.16-.18-.17-.24-.18-.26-.04-.07.21.27.13.17-.21-.27h-11.93c-38.74,0-44.22,32.87-44.22,32.87l-23.48,115.04c1.57,32.87,33.26,28.57,33.26,28.57h12.91l4.3-30.13c-16.43,1.17-11.74-12.91-11.74-12.91,0,0,16.43-73.96,17.22-89.61.78-15.65,19.57-14.09,19.57-14.09l4.58-29.03s-.03-.09-.05-.14Z"/>
  <polygon class="cls-1" points="177.97 213.45 217.49 213.45 211.62 242.59 171.31 242.59 177.97 213.45"/>
  <path class="cls-1" d="M259.36,202.89s18,2.74,13.7,21.13-25.04,18.58-25.04,18.58c0,0-14.87,0-15.65-14.57s12.52-26.7,27-25.14Z"/>
  <polygon class="cls-1" points="394.18 271.67 386.74 301.41 346.44 301.41 353.09 271.67 394.18 271.67"/>
  <path class="cls-1" d="M341.19,272.25s-.01-.03-.02-.06c-.01,0-.06-.04-.16-.18-.17-.24-.18-.26-.04-.07.21.27.13.17-.21-.27h-11.93c-38.74,0-44.22,32.87-44.22,32.87l-23.48,115.04c1.57,32.87,33.26,28.57,33.26,28.57h12.91l4.3-30.13c-16.43,1.17-11.74-12.91-11.74-12.91,0,0,16.43-73.96,17.22-89.61.78-15.65,19.57-14.09,19.57-14.09l4.58-29.03s-.03-.09-.05-.14Z"/>
  <polygon class="cls-1" points="324.13 419.2 363.66 419.2 357.79 448.34 317.48 448.34 324.13 419.2"/>
  <path class="cls-1" d="M405.53,408.63s18,2.74,13.7,21.13c-4.3,18.39-25.04,18.58-25.04,18.58,0,0-14.87,0-15.65-14.57s12.52-26.7,27-25.14Z"/>
  <polygon class="cls-1" points="532.23 490.02 524.8 519.76 484.49 519.76 491.15 490.02 532.23 490.02"/>
  <path class="cls-1" d="M479.25,490.59s-.01-.03-.02-.06c-.01,0-.06-.04-.16-.18-.17-.24-.18-.26-.04-.07.21.27.13.17-.21-.27h-11.93c-38.74,0-44.22,32.87-44.22,32.87l-23.48,115.04c1.57,32.87,33.26,28.57,33.26,28.57h12.91l4.3-30.13c-16.43,1.17-11.74-12.91-11.74-12.91,0,0,16.43-73.96,17.22-89.61.78-15.65,19.57-14.09,19.57-14.09l4.58-29.03s-.03-.09-.05-.14Z"/>
  <polygon class="cls-1" points="462.19 637.54 501.71 637.54 495.84 666.69 455.54 666.69 462.19 637.54"/>
  <path class="cls-1" d="M543.58,626.98s18,2.74,13.7,21.13-25.04,18.58-25.04,18.58c0,0-14.87,0-15.65-14.57s12.52-26.7,27-25.14Z"/>
  <path class="cls-1" d="M354.66,9.89l318.52,548.61s22.7-3.13,25.83-42.26L406.31,9.89s-15.65-21.13-51.65,0Z"/>
  <path class="cls-1" d="M25.44,213.45l315.8,553.22s-21.54,21.13-50.5,0L1.18,261.11s-7.04-24.1,24.26-47.66Z"/>
</svg>